#!OML:ASF H:\Dans Jumps\Project 1\Capture day 1\Session 1\subject.ASF
:FULLY-SPECIFIED
:DEGREES
384
root 0.607413 17.7534 7.48092 9.8567 -3.37307 -1.06106
lowerback -1.05517 -0.214236 -1.02893
upperback 3.51571 -0.301988 1.30356
thorax 4.22539 -0.210138 1.90724
lowerneck -11.8102 1.1588 -1.74654
upperneck 33.7946 1.68766 1.26535
head 13.2794 0.666704 1.0464
rclavicle -4.17448e-015 9.14409e-015
rhumerus -31.8237 -16.1346 -77.1003
rradius 21.241
rwrist 42.8654
rhand -12.4796 -25.0734
rfingers 7.12502
rthumb 13.5948 -54.6095
lclavicle -4.17448e-015 9.14409e-015
lhumerus -22.9971 0.472906 85.3464
lradius 18.4135
lwrist 7.84088
lhand -25.1777 -5.48007
lfingers 7.12502
lthumb 1.33995 24.4955
rfemur -13.7184 -0.209346 18.113
rtibia 19.0186
rfoot -12.8763 -1.21437
rtoes 14.0525
lfemur -13.9651 8.8841 -19.1482
ltibia 18.6054
lfoot -10.7217 3.02466
ltoes 0.356166
385
root 0.605169 17.7488 7.4861 9.78028 -3.23859 -1.00016
lowerback -1.00356 -0.240321 -1.04529
upperback 3.53669 -0.337014 1.31452
thorax 4.21961 -0.228426 1.92624
lowerneck -11.8387 1.15187 -1.757
upperneck 33.8568 1.68748 1.24888
head 13.3128 0.66281 1.04305
rclavicle -1.11816e-014 6.55989e-015
rhumerus -31.6726 -16.0757 -77.1862
rradius 21.2483
rwrist 42.7479
rhand -12.5895 -25.1251
rfingers 7.12502
rthumb 13.4889 -54.6683
lclavicle -1.11816e-014 6.55989e-015
lhumerus -22.9343 0.316821 85.6197
lradius 18.3726
lwrist 7.68405
lhand -25.1554 -5.45029
lfingers 7.12502
lthumb 1.36145 24.5251
rfemur -13.5679 -0.278039 18.0762
rtibia 18.9887
rfoot -12.9758 -1.33869
rtoes 13.9645
lfemur -13.7649 8.88616 -19.2101
ltibia 18.3863
lfoot -10.7638 2.99566
ltoes 0.423663
386
root 0.602941 17.7452 7.48974 9.69363 -3.10891 -0.952392
lowerback -0.927854 -0.263101 -1.05617
upperback 3.5597 -0.368265 1.33432
thorax 4.20217 -0.244747 1.95158
lowerneck -11.8613 1.14305 -1.76841
upperneck 33.9286 1.68668 1.22658
head 13.3493 0.657669 1.03755
rclavicle 9.29318e-015 -1.43125e-014
rhumerus -31.4994 -16.0722 -77.2368
rradius 21.2334
rwrist 42.6978
rhand -12.7312 -25.1854
rfingers 7.12502
rthumb 13.3523 -54.7376
lclavicle 9.29318e-015 -1.43125e-014
lhumerus -22.861 0.213323 85.8871
lradius 18.3187
lwrist 7.44101
lhand -25.1641 -5.46307
lfingers 7.12502
lthumb 1.35309 24.5124
rfemur -13.4235 -0.340413 18.0452
rtibia 18.9767
rfoot -13.0539 -1.42063
rtoes 13.9516
lfemur -13.5621 8.85394 -19.2527
ltibia 18.1766
lfoot -10.7797 3.00319
ltoes 0.478095
387
root 0.60078 17.7426 7.492 9.60379 -2.98544 -0.934076
lowerback -0.836369 -0.280272 -1.04343
upperback 3.58427 -0.393254 1.36561
thorax 4.17707 -0.257328 1.97591
lowerneck -11.8733 1.13201 -1.7811
upperneck 34 1.68399 1.20078
head 13.3834 0.651115 1.03049
rclavicle 8.29926e-015 -1.33186e-014
rhumerus -31.3022 -16.1288 -77.2548
rradius 21.1962
rwrist 42.719
rhand -12.8976 -25.2537
rfingers 7.12502
rthumb 13.1919 -54.8163
lclavicle 8.29926e-015 -1.33186e-014
lhumerus -22.7779 0.115601 86.158
lradius 18.2516
lwrist 7.1766
lhand -25.2055 -5.50704
lfingers 7.12502
lthumb 1.31306 24.4687
rfemur -13.2861 -0.393232 18.0385
rtibia 18.9713
rfoot -13.1123 -1.46042
rtoes 14.0359
lfemur -13.3771 8.78609 -19.2576
ltibia 18.0043
lfoot -10.7804 3.04629
ltoes 0.526329
